<?xml version="1.0" encoding="UTF-8" standalone="no"?>
<!-- Created with Inkscape (http://www.inkscape.org/) -->

<svg
   width="32.0px"
   height="32.0px"
   viewBox="0 0 32.0 32.0"
   version="1.1"
   id="SVGRoot"
   sodipodi:docname="jago-logo.svg"
   inkscape:version="1.1 (c68e22c387, 2021-05-23)"
   xmlns:inkscape="http://www.inkscape.org/namespaces/inkscape"
   xmlns:sodipodi="http://sodipodi.sourceforge.net/DTD/sodipodi-0.dtd"
   xmlns="http://www.w3.org/2000/svg"
   xmlns:svg="http://www.w3.org/2000/svg">
  <sodipodi:namedview
     id="namedview829"
     pagecolor="#ffffff"
     bordercolor="#666666"
     borderopacity="1.0"
     inkscape:pageshadow="2"
     inkscape:pageopacity="0.0"
     inkscape:pagecheckerboard="0"
     inkscape:document-units="px"
     showgrid="true"
     inkscape:zoom="17.597674"
     inkscape:cx="21.139157"
     inkscape:cy="17.644377"
     inkscape:window-width="2560"
     inkscape:window-height="1377"
     inkscape:window-x="-8"
     inkscape:window-y="-8"
     inkscape:window-maximized="1"
     inkscape:current-layer="layer1"
     inkscape:snap-global="false">
    <inkscape:grid
       type="xygrid"
       id="grid892" />
  </sodipodi:namedview>
  <defs
     id="defs824" />
  <g
     inkscape:label="Ebene 1"
     inkscape:groupmode="layer"
     id="layer1">
    <g
       id="g1237"
       transform="matrix(0.94153168,0,0,0.94977791,0.93717707,0.8051842)">
      <path
         id="path1108"
         style="fill:#083c00;fill-opacity:0;stroke:#0d0c04;stroke-width:1.99075;stroke-miterlimit:4;stroke-dasharray:none"
         d="M 32,16 A 16,15.852386 0 0 1 16,31.852386 16,15.852386 0 0 1 0,16 16,15.852386 0 0 1 16,0.14761447 16,15.852386 0 0 1 32,16 Z" />
      <path
         id="rect1278"
         style="stroke:#0d0c04; fill:#c69963"
         d="m 1,11 h 30 v 2 H 1 Z" />
      <path
         id="rect1280"
         style="stroke:#0d0c04; fill:#c69963"
         d="m 15,0 h 2 v 31 h -2 z" />
      <g
         aria-label="J"
         transform="scale(0.99629579,1.003718)"
         id="text10084"
         style="font-size:18.5819px;line-height:1.25;font-family:'Bodoni MT';-inkscape-font-specification:'Bodoni MT';stroke-width:0.464549"
         inkscape:label="text10084">
        <path
           d="m 6.8891347,14.000855 h 6.0246003 v 0.462733 h -1.787419 v 8.565094 q 0,1.587809 -0.335708,2.486055 -0.326635,0.889173 -1.351906,1.578736 -1.0252709,0.689562 -2.1957128,0.689562 -1.1341491,0 -1.9598097,-0.607904 -0.8256606,-0.59883 -0.8256606,-1.342832 0,-0.45366 0.3084886,-0.753075 0.3084886,-0.308489 0.7349286,-0.308489 0.4173669,0 0.6895627,0.272196 0.2721958,0.263123 0.2721958,0.662343 0,0.290342 -0.1451711,0.535318 -0.2449762,0.244977 -0.2449762,0.426441 0,0.254049 0.3810741,0.453659 0.3901473,0.19961 0.843807,0.19961 0.7802946,0 1.2248811,-0.508098 0.4536596,-0.508099 0.4536596,-2.486055 V 14.463588 H 6.8891347 Z"
           id="path913" />
      </g>
      <g
         aria-label="L"
         transform="matrix(0.85085276,-0.01490567,0,1.1752915,0,0)"
         id="text10084-6"
         style="font-size:17.2345px;line-height:1.25;font-family:'Bodoni MT';-inkscape-font-specification:'Bodoni MT, Normal';stroke-width:0.430857">
        <path
           d="m 25.901576,12.617385 v 10.426536 h 2.533001 q 0.732129,0 1.152894,-0.109398 0.420764,-0.109399 0.824697,-0.530163 0.412349,-0.420765 0.631147,-1.001419 0.227212,-0.580655 0.479671,-1.615735 h 0.395518 l -0.311365,3.685895 h -9.484025 v -0.42918 h 1.775625 V 12.617385 h -1.775625 v -0.42918 h 5.655071 v 0.42918 z"
           id="path916" />
      </g>
    </g>
  </g>
</svg>
